<?xml version="1.0" encoding="UTF-8"?>
<svg width="377px" height="307px" viewBox="0 0 377 307" version="1.1" xmlns="http://www.w3.org/2000/svg" xmlns:xlink="http://www.w3.org/1999/xlink">
    <!-- Generator: Sketch 46.2 (44496) - http://www.bohemiancoding.com/sketch -->
    <title>Group 2</title>
    <desc>Created with Sketch.</desc>
    <defs></defs>
    <g id="Logos" stroke="none" stroke-width="1" fill="none" fill-rule="evenodd">
        <g id="Group-2" fill-rule="nonzero">
            <path d="M33.666464,45.2030928 C33.666464,25.0894895 49.971761,8.78419244 70.0853643,8.78419244 C90.1989676,8.78419244 106.504265,25.0894895 106.504265,45.2030928 C106.504265,65.316696 90.1989676,81.6219931 70.0853643,81.6219931 C49.9971069,81.5609342 33.7275229,65.2913502 33.666464,45.2030928 L33.666464,45.2030928 Z M317.789488,73.8378007 C337.903091,73.8378007 354.208388,57.5325036 354.208388,37.4189003 C354.208388,17.3052971 337.903091,1 317.789488,1 C297.675885,1 281.370588,17.3052971 281.370588,37.4189003 C281.431647,57.5071578 297.701231,73.7767417 317.789488,73.8378007 Z M371.166808,84.9580756 C368.942753,76.3398625 360.602546,74.9498282 356.988457,78.0079038 C337.805983,93.0202749 303.611138,110.256701 269.138285,125.825086 C241.615605,138.057388 205.752718,145.841581 184.902203,149.733677 C174.615949,151.679725 177.952031,157.517869 183.234162,159.185911 C250.511825,182.538488 326.129694,134.721306 326.129694,134.721306 C326.129694,134.721306 314.453406,252.874227 199.35856,246.758076 C84.2637148,240.641924 78.1475636,142.783505 78.1475636,142.783505 C136.529007,149.177663 183.512168,133.887285 215.204952,123.323024 C235.499454,116.372852 245.229694,106.086598 219.653062,107.754639 C203.80667,108.866667 182.678148,109.700687 154.599454,110.534708 C113.49783,111.503728 72.6037849,104.420464 34.2224777,89.6841924 C29.7743677,88.0161512 26.4382853,89.4061856 25.6042647,94.4103093 C21.7121684,112.202749 12.2599348,162.243986 41.4506564,216.17732 C78.9815842,284.845017 137.363028,307.641581 199.636567,306.529553 C248.843784,305.695533 314.175399,281.786942 354.764402,209.227148 C375.652167,171.336584 381.508081,126.970593 371.166808,84.9580756 L371.166808,84.9580756 Z" id="Shape" fill="#E87A24"></path>
            <path d="M57.5890034,81.1780069 C35.1723158,81.1780069 17,63.005691 17,40.5890034 C17,18.1723158 35.1723158,0 57.5890034,0 C80.005691,0 98.1780069,18.1723158 98.1780069,40.5890034 C98.1473794,62.9929925 79.9929925,81.1473794 57.5890034,81.1780069 Z" id="Shape" fill="#115DB7"></path>
            <path d="M177.739506,305.801535 C106.29174,305.801535 53.1924271,274.664766 19.8316024,213.225247 C-0.462899347,175.694319 -4.63300244,130.935212 4.81923124,85.6200922 C5.32483012,80.6525091 9.55718749,76.9038497 14.5494718,77.0018791 C16.1931185,76.9708545 17.818224,77.3532323 19.2755886,78.1139066 C34.8439735,84.2300578 75.1549701,101.744491 128.810297,101.744491 L136.594489,101.744491 C160.781087,101.188477 182.74363,100.07645 201.37009,98.9644221 C203.316138,98.9644221 204.98418,98.6864152 206.652221,98.6864152 C210.26631,98.6864152 220.274558,98.6864152 221.386585,105.35858 C222.77662,113.420779 207.764248,119.536931 198.590022,122.595006 C175.237444,130.657206 144.100675,143.445522 87.9432862,147.337618 C80.2339541,147.667821 72.5105673,147.295609 64.8687158,146.22559 C67.9267914,165.964078 84.3291969,239.913907 179.963561,245.474044 L202.482118,246.030058 L202.482118,306.079542 L177.739506,306.079542 L177.739506,305.801535 Z" id="Shape" fill="#115DB7"></path>
            <path d="M65.4095204,80.3929897 C80.3122712,77.6350571 92.4201354,66.7724567 96.7729716,52.2551914 C101.125808,37.737926 96.9921605,22.0054939 86.065431,11.5028866 C81.2865586,9.22990135 76.0668316,8.03410935 70.775053,8 C51.9617474,8.31919606 36.494038,22.9275491 35.1011431,41.6919355 C33.7082483,60.4563219 46.8495377,77.1883429 65.4095204,80.2817869 L65.4095204,80.3929897 Z" id="Shape" fill="#093868"></path>
            <path d="M201.860622,246.717584 L199.35856,246.717584 L197.968526,246.717584 L179.342065,246.244972 C83.7077011,240.684835 67.3052956,166.735006 64.24722,146.996518 C69.0011375,147.524732 73.8940585,148.025144 78.8147801,148.191948 C78.2865671,144.800264 78.1475636,142.826415 78.1475636,142.826415 C94.1597518,144.562193 110.299861,144.785586 126.353955,143.493632 C159.130966,137.933494 180.704299,129.343082 197.968526,123.365934 C206.531138,120.585866 220.209076,115.025728 220.820691,107.741948 L219.653062,107.741948 C203.80667,108.853976 182.678148,109.687996 154.599454,110.522017 C113.49783,111.491037 72.6037849,104.407773 34.2224777,89.6715013 C29.7743677,88.0034601 26.4382853,89.3934944 25.6042647,94.3976181 C21.7121684,112.190058 12.2599348,162.231295 41.4506564,216.164628 C78.9815842,284.832326 137.363028,307.62889 199.636567,306.516862 L201.860622,306.516862 L201.860622,246.717584 Z" id="Shape" fill="#093868"></path>
        </g>
    </g>
</svg>