<?xml version="1.0" encoding="UTF-8"?>
<svg width="3226px" height="2621px" viewBox="0 0 3226 2621" version="1.1" xmlns="http://www.w3.org/2000/svg" xmlns:xlink="http://www.w3.org/1999/xlink">
    <!-- Generator: Sketch 46.2 (44496) - http://www.bohemiancoding.com/sketch -->
    <title>icon/logo</title>
    <desc>Created with Sketch.</desc>
    <defs></defs>
    <g id="Screens" stroke="none" stroke-width="1" fill="none" fill-rule="evenodd">
        <g id="icons/logo" transform="translate(-1.000000, -9.000000)">
            <g id="Group">
                <path d="M295.051038,390.191687 C295.051038,218.88802 435.438225,78.514181 606.758182,78.514181 C778.07814,78.514181 918.465327,218.88802 918.465327,390.191687 C918.465327,561.495355 778.07814,701.869193 606.758182,701.869193 C435.438225,701.869193 295.051038,561.495355 295.051038,390.191687 Z M2726.84265,635.2511 C2898.16261,635.2511 3038.5498,494.877262 3038.5498,323.573594 C3038.5498,152.269927 2898.16261,11.896088 2726.84265,11.896088 C2555.5227,11.896088 2415.13551,152.269927 2415.13551,323.573594 C2415.13551,494.877262 2553.14325,635.2511 2726.84265,635.2511 Z M3183.69587,730.419805 C3164.66032,656.664059 3093.27701,644.767971 3062.34424,670.939365 C2898.16261,799.417115 2605.49102,946.928607 2310.43998,1080.16479 C2074.87504,1184.85037 1767.92678,1251.46846 1589.46849,1284.77751 C1501.42907,1301.43203 1529.9824,1351.3956 1575.19183,1365.67091 C2151.01724,1565.52518 2798.22597,1156.29976 2798.22597,1156.29976 C2798.22597,1156.29976 2698.28933,2167.46724 1713.19957,2115.12445 C728.109819,2060.40245 675.762054,1225.29707 675.762054,1225.29707 C1175.44526,1280.01907 1577.57127,1149.1621 1848.82787,1058.75183 C2022.52727,999.271394 2105.80781,911.240343 1886.89897,925.515648 C1751.27068,935.032519 1570.43294,942.170171 1330.10911,949.307824 C832.805348,961.203912 442.576557,827.967726 299.809925,770.866504 C261.738824,756.591198 233.185498,768.487286 226.047166,811.313203 C192.734952,963.58313 111.833861,1391.8423 361.675466,1853.41051 C682.900386,2441.07726 1182.58359,2636.17311 1715.57902,2626.65624 C2136.74058,2619.51858 2695.90988,2414.90587 3043.30869,1793.93007 C3288.3914,1339.49951 3233.6642,923.136431 3183.69587,730.419805 Z" id="Shape" fill="#18CCA4" fill-rule="nonzero"></path>
                <path d="M497.303765,704.248411 C304.568813,704.248411 149.904963,547.220049 149.904963,356.882641 C149.904963,166.545232 306.948257,9.51687042 497.303765,9.51687042 C687.659273,9.51687042 844.702568,166.545232 844.702568,356.882641 C844.702568,547.220049 687.659273,704.248411 497.303765,704.248411 Z" id="Shape" fill="#7B00D4" fill-rule="nonzero" opacity="0.62"></path>
                <path d="M1522.84407,2626.65624 C911.326995,2626.65624 456.85322,2360.18386 171.319957,1834.37677 C-2.37944385,1513.1824 -38.0711016,1130.12836 42.8299893,742.315893 C52.3477647,694.731541 83.2805348,668.560147 126.110524,668.560147 C140.387187,668.560147 152.284407,670.939365 166.56107,678.077017 C299.809925,730.419805 644.829284,880.310514 1104.06195,880.310514 C1125.47694,880.310514 1149.27138,880.310514 1170.68638,880.310514 C1377.69799,875.552079 1565.67405,866.035208 1725.09679,856.518338 C1741.7529,856.518338 1756.02956,854.13912 1770.30623,854.13912 C1801.239,854.13912 1886.89897,854.13912 1896.41675,911.240343 C1908.31397,980.237653 1779.824,1032.58044 1701.30235,1058.75183 C1501.42907,1127.74914 1234.93136,1237.19315 754.283701,1270.5022 C687.659273,1275.26064 621.034845,1268.12298 556.789861,1260.98533 C582.963744,1429.90978 723.350931,2062.78166 1541.87962,2110.36602 L1734.61457,2115.12445 L1734.61457,2629.03545 L1522.84407,2629.03545 L1522.84407,2626.65624 Z" id="Shape" fill="#7B00D4" fill-rule="nonzero" opacity="0.62"></path>
            </g>
        </g>
    </g>
</svg>