<?xml version="1.0" encoding="UTF-8"?>
<svg width="290px" height="290px" viewBox="0 0 290 290" version="1.1" xmlns="http://www.w3.org/2000/svg" xmlns:xlink="http://www.w3.org/1999/xlink">
    <!-- Generator: Sketch 46 (44423) - http://www.bohemiancoding.com/sketch -->
    <title>Logo (Colour)</title>
    <desc>Created with Sketch.</desc>
    <defs>
        <path d="M140.444159,246.588745 C137.755679,246.583653 135.047785,246.049552 132.4808,244.9598 C125.122239,241.838886 120.286542,234.714929 120.091952,226.751512 C120.058081,226.093525 120.058081,225.420263 120.091952,224.759122 C119.344806,225.048184 118.572754,225.300222 117.788417,225.503279 C112.47106,225.527852 107.354436,223.498437 103.531537,219.821149 C98.9953625,215.799509 96.8244874,209.745465 97.7911287,203.765306 C97.0190775,203.811297 96.2470263,203.811297 95.4751411,203.765306 C90.1546292,203.789879 85.0409938,201.748177 81.2151065,198.083175 C76.6820868,194.061536 74.5112117,188.007492 75.4746983,182.024179 C74.7026472,182.07349 73.930762,182.07349 73.1587108,182.024179 C67.8381989,182.048751 62.7245634,180.019502 58.9018308,176.345368 C53.4732317,171.229077 51.5555561,163.422394 54.0043697,156.384441 C41.1956253,143.50779 34.0039269,126.117378 34.0039269,107.992107 C33.8124914,90.8907575 40.6274621,74.4346108 52.8834842,62.4503839 C78.1889979,38.154846 117.862467,36.878056 144.675058,59.51991 C171.478185,36.6256865 211.33097,37.6368245 236.91492,61.8725907 C249.58154,74.0045866 256.720939,90.7585956 256.697694,108.256596 C256.636262,124.497067 250.401741,140.110266 239.229413,151.938589 C242.848922,159.422172 241.210181,168.381785 235.17822,174.109907 C230.799942,178.57751 224.503989,180.643618 218.302675,179.65971 C219.303851,185.701467 217.157051,191.82624 212.596137,195.934051 C208.749164,199.645209 203.610458,201.711318 198.256573,201.699032 L196.518047,201.699032 C197.447497,207.645486 195.289074,213.650384 190.777639,217.659737 C185.639264,222.585258 178.305442,224.482345 171.407123,222.680727 C170.440648,224.639246 169.162198,226.416458 167.618261,227.953753 L154.25364,241.260927 C150.433051,244.746481 145.513558,246.57929 140.5218,246.588745 L140.444157,246.588745 L140.444159,246.588745 Z M65.1856634,169.943819 C69.6848125,174.229948 76.7654351,174.229948 81.2644182,169.943819 L94.6290394,156.636645 C98.936587,152.479689 98.936587,145.610758 94.6290394,141.466088 C90.1298903,137.180125 83.0492677,137.180125 78.5502847,141.466088 L65.1856634,154.773262 C60.8811044,158.930384 60.8811044,165.799149 65.1856634,169.943819 Z M87.452616,191.491187 L87.452616,191.503473 C91.9517651,195.789602 99.0448402,195.77715 103.531537,191.491187 L116.895992,178.180858 C121.203706,174.02689 121.203706,167.158125 116.895992,163.013456 C112.409295,158.702753 105.303934,158.702753 100.817237,163.013456 L87.452616,176.32063 C83.1450685,180.477586 83.1450685,187.346517 87.452616,191.491187 Z M125.798489,213.0354 L139.163111,199.728226 C143.470658,195.574258 143.470658,188.702338 139.163111,184.560823 C134.663962,180.271539 127.583339,180.271539 123.08419,184.560823 L109.719735,197.867997 C105.412021,202.021965 105.412021,208.893719 109.719735,213.0354 C114.218884,217.324518 121.29934,217.324518 125.798489,213.0354 Z M161.877853,221.89971 L161.778898,221.792121 C166.219437,217.589007 166.182246,210.538769 161.695549,206.394099 C157.159375,202.046538 150.020143,201.926662 145.351309,206.129609 L131.986687,219.436783 C129.948638,221.503058 128.886362,224.325611 129.043927,227.221882 C129.056213,230.235206 130.2729,233.106904 132.431322,235.206884 C136.930472,239.496002 144.011094,239.496002 148.510243,235.206884 L161.877853,221.89971 Z M228.809213,168.046731 C233.212395,163.963494 233.273827,157.045583 228.953661,152.876174 L198.799998,123.079647 L167.618261,92.0315669 L138.548458,120.195496 C130.6219,127.774549 118.103381,127.774549 110.176656,120.195496 C106.258123,116.521363 104.0997,111.355759 104.25411,105.999716 C104.411509,100.643673 106.84787,95.6103978 110.973446,92.1637288 L138.13786,65.5618332 C114.774595,46.5726945 80.8538198,47.9657073 59.1302915,68.7895053 C48.588057,79.1217087 42.7395617,93.2797994 42.9187108,107.992107 C42.955736,123.067361 48.6961442,137.573622 58.9974655,148.623916 L72.3620868,135.316742 C80.3133839,127.725403 92.8566423,127.725403 100.817237,135.316742 C105.353412,139.341536 107.524121,145.392425 106.5608,151.363452 C112.613183,150.641045 118.680842,152.660996 123.08419,156.864109 C127.620364,160.888904 129.791239,166.939793 128.824764,172.923106 C134.880136,172.200533 140.947794,174.217662 145.351309,178.423763 C150.007857,182.482262 152.228043,188.656181 151.190506,194.731809 C157.353965,194.036963 163.517424,196.078499 168.02886,200.318471 C171.827019,203.980484 173.963858,209.026046 173.951572,214.286787 C177.703408,215.163106 181.658967,214.093027 184.456615,211.451948 C186.652229,209.468689 187.918227,206.646136 187.930513,203.691422 C187.930513,201.363978 187.121603,199.091657 185.664003,197.268454 C185.179188,196.917959 184.685242,196.607312 184.24044,196.161515 C183.842128,195.77715 183.527165,195.322221 183.298704,194.830266 L153.407538,165.919025 C151.418967,164.261854 151.261568,161.270114 153.07099,159.422172 C154.868126,157.571242 157.885103,157.645126 159.595736,159.579073 L190.777639,189.821564 C191.138925,190.16907 191.404411,190.565721 191.719375,190.925348 C196.218524,194.061536 202.307103,193.591166 206.27528,189.821564 C210.633633,185.68918 210.633633,178.77127 206.27528,174.651173 L175.097196,144.408516 C171.453446,140.300872 177.064183,134.560464 181.285394,138.068565 L211.306065,167.10898 C211.887179,167.311871 212.418483,167.625507 212.861789,168.046731 C217.328064,172.296001 224.346259,172.296001 228.809213,168.046731 Z M233.718794,144.937496 C253.499908,122.695282 252.186591,88.8737945 230.725228,68.2150328 C207.387697,46.3568522 170.897569,46.6557108 147.92033,68.9107091 L117.053557,98.8418886 C114.737569,100.702117 113.351032,103.466226 113.218372,106.420941 C113.144155,109.231207 114.280648,111.933884 116.330983,113.867831 C120.792941,118.166247 127.88585,118.166247 132.360261,113.867831 L164.567414,82.8197509 C164.783422,82.625991 165.024335,82.4599585 165.277535,82.3277966 C165.493709,82.1587755 165.737611,82.0018748 165.990977,81.8819993 C166.26576,81.8574265 166.555985,81.8574265 166.833924,81.8819993 C167.377348,81.6791075 167.979548,81.6791075 168.522972,81.8819993 C168.776172,81.8574265 169.029372,81.8574265 169.282571,81.8819993 C169.56051,82.0264476 169.838448,82.2079211 170.079361,82.4108128 C170.307822,82.5429747 170.536283,82.687589 170.743159,82.8566101 L205.035017,116.736541 L233.718794,144.937496 Z" id="path-1"></path>
    </defs>
    <g id="Helper-–-Return-User" stroke="none" stroke-width="1" fill="none" fill-rule="evenodd">
        <g id="Logo-(Colour)">
            <mask id="mask-2" fill="white">
                <use xlink:href="#path-1"></use>
            </mask>
            <use id="Clip-2" fill="#009CA6" xlink:href="#path-1"></use>
        </g>
    </g>
</svg>